<svg id="Layer_2" data-name="Layer 2" xmlns="http://www.w3.org/2000/svg" xmlns:xlink="http://www.w3.org/1999/xlink" viewBox="0 0 400 300" width="406" height="306" class="illustration styles_illustrationTablet__1DWOa"><defs><linearGradient id="linear-gradient" x1="366.4" y1="208.6" x2="195.04" y2="99.12" gradientUnits="userSpaceOnUse"><stop offset="0" stop-color="#ffa366"></stop><stop offset="1" stop-color="#dd6f31"></stop></linearGradient><linearGradient id="linear-gradient-2" x1="234.36" y1="274.76" x2="196.19" y2="246.35" xlink:href="#linear-gradient"></linearGradient></defs><title>PP</title><path d="M194.28,286.39,14.56,180.17C8.84,177,3.93,171.68,9.51,168.22l180.37-104c2.71-1.68,6.82-2.78,9.57-1.18L388.11,172.58c5.72,3.32,6.75,12.6,1,15.93L218,286.22A23.9,23.9,0,0,1,194.28,286.39Z" fill="#ffa366"></path><path d="M291,138.76l86.56,52.4-36,20.54L186,117.9s-2.66-10,9.2-7.31S291,138.76,291,138.76Z" fill="url(#linear-gradient)"></path><polyline points="70.76 187.64 226.33 281.44 262.31 260.91 175.75 208.5" fill="url(#linear-gradient-2)"></polyline><path d="M210,194.4c-.52-.06-2.15-.12-2.75-.12a12.8,12.8,0,0,1-6.46,2.19,11.37,11.37,0,0,1-8-1.81l-.48,4.28c-.27,3.29,4,2.64,5.66,2.56a48.19,48.19,0,0,0,9.4-1.44c1.21-.3,5.16-.93,5.38-2.94S212.32,194.66,210,194.4Z" fill="#007058"></path><path d="M202.52,182.59s-2.51,11.6-1.33,11.55,8.78.26,8.78.26a9.43,9.43,0,0,1-7.45,5.23c-5.69.82-9.75-5-9.75-5L195,180.18" fill="#ffc692"></path><path d="M191.61,171.18l-1.47,15.27s2.65,2.73,11.59,2.4,0-16.31,0-16.31" fill="#edbab9"></path><polyline points="70.76 91.7 70.76 187.64 98.38 203.44 129.55 185.01 129.55 89.07" fill="#ff734d"></polyline><polygon points="70.76 91.7 102.81 73.46 129.55 89.07 98.38 107.49 70.76 91.7" fill="#ffb5a4"></polygon><polygon points="98.38 107.49 98.38 203.44 129.55 185.01 129.55 89.07 98.38 107.49" fill="#f78b72"></polygon><polygon points="135.88 113.45 103.84 131.69 103.84 207.66 131.45 223.46 162.62 205.04 162.62 129.07 135.88 113.45" fill="#68e1fd"></polygon><polygon points="103.84 131.69 135.88 113.45 162.62 129.07 131.45 147.49 103.84 131.69" fill="#fff" opacity="0.49"></polygon><polygon points="131.45 147.49 131.45 223.46 162.62 205.04 162.62 129.07 131.45 147.49" opacity="0.2"></polygon><polyline points="139.19 180.01 139.19 229.31 166.8 245.1 197.98 226.68 197.98 177.38" fill="#a3e271"></polyline><polygon points="139.19 180.01 171.23 161.77 197.98 177.38 166.8 195.8 139.19 180.01" fill="#bfea98"></polygon><polygon points="166.8 195.8 166.8 245.1 197.98 226.68 197.98 177.38 166.8 195.8" fill="#8ad647"></polygon><path d="M334.63,94.09,192,11.94a6.43,6.43,0,0,0-9.64,5.57V103a5.35,5.35,0,0,0,2.67,4.63l152,87.73a3.45,3.45,0,0,0,5.18-3v-85.1A15.18,15.18,0,0,0,334.63,94.09Z" fill="#68e1fd"></path><path d="M182.39,17.51h0A6.43,6.43,0,0,1,192,11.94l142.6,82.15a14.38,14.38,0,0,1,7.6,12.65v2.52Z" opacity="0.2"></path><ellipse cx="189.08" cy="16.96" rx="1.32" ry="2.03" transform="translate(7.77 73.2) rotate(-22.36)" fill="#fff"></ellipse><ellipse cx="192.94" cy="19.03" rx="1.32" ry="2.03" transform="translate(7.27 74.83) rotate(-22.36)" fill="#fff"></ellipse><ellipse cx="196.99" cy="20.97" rx="1.32" ry="2.03" transform="translate(6.83 76.51) rotate(-22.36)" fill="#fff"></ellipse><path d="M187.15,175.35s15.89.58,20.45-1.51-17.46-10.27-17.46-10.27" fill="#ffe0de"></path><path d="M186.6,154.9s10-8,16.59-8.94,10.07,6.24,9.6,11-16.32,7.44-16.32,7.44" fill="#edbab9"></path><path d="M219.26,201.3c-.52-.06-2.15-.12-2.75-.12a12.8,12.8,0,0,1-6.46,2.19,11.37,11.37,0,0,1-8-1.81l-.48,4.28c-.27,3.29,4,2.64,5.66,2.56a48.19,48.19,0,0,0,9.4-1.44c1.21-.3,5.16-.93,5.38-2.94S221.61,201.57,219.26,201.3Z" fill="#007058"></path><path d="M211.8,189.49s-2.51,11.6-1.33,11.55,8.78.26,8.78.26a9.43,9.43,0,0,1-7.45,5.23c-5.69.82-9.75-5-9.75-5l2.25-14.47" fill="#ffc692"></path><path d="M187.24,155.27s10-8,16.59-8.94,10.07,6.24,9.6,11-16.32,7.44-16.32,7.44" fill="#edbab9"></path><path d="M192.55,157.93c1.29-1.2,18.21-9.1,24.17-5.49s5.58,6.28,4.83,10.67S215,191.17,215,191.17a21.51,21.51,0,0,1-13.53.64l1.67-17.58-22.54-12.31" fill="#ffe0de"></path><polygon points="192.68 156.1 198.03 160.11 220.85 148.39 205.59 137.53 184.22 149.65 192.68 156.1" fill="#007058"></polygon><path d="M169.91,143s-.36-13.44,5.76-13.66,14.12,4.18,14.57,11.29c.35,5.65.85,11.29,1.27,16.93a29.18,29.18,0,0,1-1,10.49c-.6,2-1.7,6-3.37,7.27-1.41,1.09-4.62,1.24-6.3,1.41a21.9,21.9,0,0,1-10.95-1.51c-8.52-3.7-3.17-26.44-3.17-26.44" fill="#5fad00"></path><path d="M209.59,143.25l.11-.06a.88.88,0,0,0-.88-1.51l-.21.13a.89.89,0,0,0-1.3-.79c-1,.5-2,1-3,1.53l.38-.46c.58-.72-.15-1.95-1.06-1.38q-1.8,1.13-3.54,2.35a.92.92,0,0,0-.19,1.33l-.18.14a1,1,0,0,0-.26,1.21,1,1,0,0,0,.09.8c-.55.4-.23,1.21.35,1.44l.08.08-1,.36c-1.06.37-.6,2.06.47,1.69l5.32-1.86a8.29,8.29,0,0,0,3.75-2,.86.86,0,0,0,.14-1,5.56,5.56,0,0,0,1.07-.73A.78.78,0,0,0,209.59,143.25Z" fill="#ffc692"></path><path d="M187.85,146.59s9.56-3.89,12.41-4.72c0,0,3,2.07,2.13,7.51,0,0-8.62,8.81-14,11.46" fill="#5fad00"></path><path d="M180.41,127.44a.91.91,0,0,0-.07-1.16,3.57,3.57,0,0,0-1.5-1.19,1.33,1.33,0,0,0-1.69,1,2.24,2.24,0,0,0,2.64,2.48.9.9,0,0,0,.61-1.08Z" fill="#ff666d"></path><path d="M182.4,117.42s4.58,9.65,1.57,12.49c-2.13,2-6.35,1.88-8.55-1.81S178.26,115.66,182.4,117.42Z" fill="#ffc692"></path><path d="M177.94,126.64a14.06,14.06,0,0,0,4.47-8.52c.49-5.15-10.89-3.33-12.76,1.67s.89,12.25,8.55,11.23Z" fill="#007058"></path><path d="M172.65,127.25c-.78.66-20.76,21.07-10.4,27.89,8.64,5.7,11.94-24.17,11.94-26.46" fill="#007058"></path><polyline points="173.61 214.05 173.61 249.45 201.22 265.24 232.4 246.82 232.4 211.42" fill="#ffad4a"></polyline><polygon points="173.61 214.05 205.65 195.8 232.4 211.42 201.22 229.84 173.61 214.05" fill="#fd9"></polygon><polygon points="201.22 229.84 201.22 265.24 232.4 246.82 232.4 211.42 201.22 229.84" fill="#ffc36c"></polygon><ellipse cx="225.82" cy="27.09" rx="2.36" ry="2.28" fill="#fff"></ellipse><ellipse cx="321.93" cy="23.53" rx="2.36" ry="2.28" fill="#fff"></ellipse><ellipse cx="268.04" cy="16.64" rx="2.36" ry="2.28" fill="#fff"></ellipse><ellipse cx="286.62" cy="32.34" rx="2.36" ry="2.28" fill="#fff"></ellipse><path d="M192.88,47.38V102.3a1,1,0,0,0,2,0V47.38A1,1,0,0,0,192.88,47.38Z" fill="#007058"></path><path d="M236.78,70v54.92a1,1,0,0,0,2,0V70A1,1,0,0,0,236.78,70Z" fill="#007058"></path><path d="M277.88,96.4v54.92a1,1,0,0,0,2,0V96.4A1,1,0,0,0,277.88,96.4Z" fill="#007058"></path><path d="M322.29,118.78V173.7a1,1,0,0,0,2,0V118.78A1,1,0,0,0,322.29,118.78Z" fill="#007058"></path><path d="M192.77,97.44l12.92-7,9.49,16.94L239.3,90.47l14.45,35.37,25.9-16.58,20.62,32.89,24-18" fill="none" stroke="#fff" stroke-miterlimit="10"></path><ellipse cx="278.46" cy="110.59" rx="3.31" ry="4.24" fill="#007058"></ellipse><ellipse cx="237.78" cy="90.84" rx="3.31" ry="4.24" fill="#007058"></ellipse><ellipse cx="193.88" cy="97.1" rx="3.31" ry="4.24" fill="#007058"></ellipse><ellipse cx="323.29" cy="124.84" rx="3.31" ry="4.24" fill="#007058"></ellipse><path d="M211.9,54.09c5.32-1.69,11.28,2.65,13.58,9.88a16.44,16.44,0,0,1,.24,9.68,8.87,8.87,0,0,1-5.64,6.22,7.67,7.67,0,0,1-2.33.36A9.64,9.64,0,0,1,211.88,78a16.44,16.44,0,0,1-5.38-8C204.21,62.76,206.58,55.77,211.9,54.09Z" fill="#fff"></path><path d="M216,53.91s0,13.4,0,13.4l-9.83-6.7S208,52.52,216,53.91Z" fill="#f8997c"></path><path d="M216,67.31l-10,.83s-1.26-4.3.13-7.53Z" fill="#5fad00"></path><path d="M256,77.59c5.32-1.69,11.28,2.65,13.58,9.88a16.44,16.44,0,0,1,.24,9.68,8.87,8.87,0,0,1-5.64,6.22,7.67,7.67,0,0,1-2.33.36,9.64,9.64,0,0,1-5.86-2.19,16.44,16.44,0,0,1-5.38-8C248.28,86.26,250.65,79.27,256,77.59Z" fill="#fff"></path><path d="M260.05,77.41s0,13.4,0,13.4l-9.83-6.7S252.11,76,260.05,77.41Z" fill="#f8997c"></path><path d="M260.05,90.81l-10,.83s-1.26-4.3.13-7.53Z" fill="#5fad00"></path><path d="M260.05,90.81l9.74-2.46s-1.71-8.78-9.74-10.93" fill="#f8997c"></path><path d="M298.36,99.7c5.32-1.69,11.28,2.65,13.58,9.88a16.44,16.44,0,0,1,.24,9.68,8.87,8.87,0,0,1-5.64,6.22,7.67,7.67,0,0,1-2.33.36,9.64,9.64,0,0,1-5.86-2.19,16.44,16.44,0,0,1-5.38-8C290.67,108.38,293,101.39,298.36,99.7Z" fill="#fff"></path><path d="M302.44,99.53s0,13.4,0,13.4l-9.83-6.7S294.5,98.14,302.44,99.53Z" fill="#f8997c"></path><path d="M302.44,112.93l-10,.83s-.81-4.49.13-7.53Z" fill="#5fad00"></path><path d="M302.44,112.93v12.92s9.8,1.95,10.35-10.68c0,0,.41-13-10.35-15.64Z" fill="#f8997c"></path></svg>